<svg width="1143" height="771" viewBox="0 0 1143 771" fill="none" xmlns="http://www.w3.org/2000/svg">
<g id="map">
<path id="Vector" d="M74.6089 450.18L75.6531 450.598L75.9279 449.826L74.9818 448.038L71.9715 445.721L71.6167 445.79V446.222L73.6933 449.032L74.6089 450.18Z" fill="#C9D6DF"/>
<path id="Vector_2" d="M39.729 423.027L39.7304 423.034L40.1993 424.154L43.1003 424.245L43.2095 423.542L42.0804 422.137L39.3818 422.22L39.729 423.027Z" fill="#C9D6DF"/>
<path id="Vector_3" d="M48.4455 424.551L52.7296 424.746L50.6467 423.883L46.4892 421.441L46.0488 421.657L46.7334 422.721L48.4455 424.551Z" fill="#C9D6DF"/>
<path id="Vector_4" d="M69.2563 460.435L69.3008 460.602C69.3439 460.741 69.4093 460.922 69.4845 461.11C69.6368 461.485 69.826 461.896 69.952 462.153C69.986 462.23 70.0118 462.278 70.0341 462.327L71.2529 463.545L71.5388 463.51L70.5816 461.993L69.25 459.565V460.4L69.2563 460.435Z" fill="#C9D6DF"/>
<path id="Vector_5" d="M26.49 181.523L40.6697 185.33L50.1617 187.968L65.8023 193.227L82.6199 197.563L100.183 202.502L100.042 203.055L157.09 216.711L162.805 193.976L162.821 193.91L168.352 171.264L170.078 165.816L173.107 158.496L171.934 156.344L168.866 156.472L167.301 154.516L167.341 154.408L167.449 154.111L167.811 153.117L167.943 152.755L168.35 148.679L174.312 141.192L176.593 140.654L177.71 139.538L178.377 135.407L178.615 135.222L179.696 134.381L184.522 126.946L189.25 121.581L189.476 117.379L189.187 117.151L185.26 114.056L185.259 114.055L185.242 114.043L185.189 113.824L183.703 108.908L166.934 104.747H166.937L148.222 100.165L128.413 100.302L127.96 98.8272L121.57 101.239L115.538 100.397L112.764 98.4662L111.414 99.2544L105.017 98.9699L102.807 97.1729L96.5234 94.6607L95.4958 94.7894L90.2427 93.0398L87.8404 95.3161L79.5311 94.8924L71.1535 89.0159L71.3678 88.771L71.1522 88.6193L72.4531 87.1326L72.6938 78.01L70.1037 73.5367L64.829 72.7221L64.0317 69.4029L61.2949 68.8088L61.1544 68.6919L54.8792 70.9334L52.1096 78.8602L48.0197 91.7924L43.9366 100.09L37.6253 117.97L29.4391 135.268L19.5463 151.89L17.1455 155.429L16.1068 166.323L14.5742 173.74L16.7636 178.33L16.8338 178.115L26.49 181.523Z" fill="#C9D6DF"/>
<path id="Vector_6" d="M290.255 171.407L285.453 203.02L279.119 241.028L279.387 241.075L277.168 255.5L274.921 269.724L282.434 270.796H282.43L303.602 273.689L315.945 275.231L315.933 275.309L340.291 278.292H340.283L386.962 283.551L416.697 286.104L422.23 229.841L422.317 229.846L424.26 197.991L425.617 176.243L411.92 174.734H411.924L371.672 170.525L351.402 167.893L315.881 162.631L291.765 158.949L290.161 171.332L290.255 171.407Z" fill="#C9D6DF"/>
<path id="Vector_7" d="M290.445 157.193L290.481 156.917L316.244 160.851L316.242 160.849L351.745 166.11L371.983 168.738L412.208 172.943L425.723 174.059L427.682 155.209L428.599 147.877L429.389 132.489L432.281 100.672L433.994 81.4469L435.472 64.5576L396.266 60.3166L359.561 55.7105L322.852 50.5804L282.194 43.7376L259.161 39.3944L218.877 30.6147L213.447 56.7463L217.78 66.4638L217.757 66.5431L217.781 66.5988L216.089 72.4558L218.216 77.7716L222.311 79.4885L226.97 92.8034L231.57 97.5341L231.628 97.69L232.027 98.7878L236.437 100.258L237.095 103.548L237.079 103.59L237.098 103.683L228.125 126.247V128.991L230.889 132.562H231.473L237.189 128.959L238.38 127.087L241.425 128.508L241.42 128.64L241.427 128.643L241.152 135.656L244.493 151.336L247.969 154.438L249.201 155.395L251.823 158.602L251.811 158.72L251.85 158.768L251.759 159.251L251.407 162.876L252.248 166.835L252.879 167.351L255.183 165.047H255.309L255.577 164.78H259.499L263.439 166.815L266.408 165.701H271.842L276.388 167.781L278.651 167.432L279.141 163.882L279.51 163.791L279.534 163.614L284.142 162.463L286.344 164.664L286.865 168.693L288.596 170.079L290.355 157.18L290.445 157.193Z" fill="#C9D6DF"/>
<path id="Vector_8" d="M195.88 48.5532L190.229 75.0988L185.641 95.9383L185.384 108.14L186.608 113.162L191.053 116.666L190.756 122.196L185.75 127.877L180.844 135.434L180.743 135.514L179.799 136.25L179.149 140.272L177.371 142.05L175.181 142.565L169.833 149.282L169.452 153.099L169.42 153.19L169.04 154.231L169.58 154.905L172.825 154.77L174.808 158.405L171.524 166.344L169.831 171.68L164.315 194.276L158.711 217.079L183.98 222.534L196.205 225.032H196.204L207.931 227.403C216.908 229.848 226.52 231.812 236.262 233.574L244.546 235.027C253.969 236.636 263.381 238.131 272.327 239.757L277.264 240.615L283.676 202.784L288.373 172.952L285.023 169.735L284.495 165.65L283.278 164.431L280.889 165.029L280.38 168.72L280.016 168.775L279.987 168.988L275.775 169.635L271.115 167.505H266.292L262.947 168.758L258.734 166.583H255.944L253.051 169.477L252.982 169.42L252.659 169.742L250.464 167.949L249.457 163.194L250.208 159.187L248.122 156.638L246.987 155.755L243.096 152.282L239.605 135.897L239.609 135.788L239.604 135.761L239.846 129.601L238.953 129.184L238.302 130.209L231.918 134.233H230.135L226.588 129.651V125.818L235.483 103.448L235.108 101.569L230.838 100.146L230.711 99.7966L230.242 98.5047L225.634 93.7663L221.088 80.7757L217.03 79.074L214.445 72.6138L214.467 72.5372L214.443 72.4788L216.125 66.6559L211.823 57.0101L211.842 56.9176L211.823 56.8751L217.369 30.1688L201.75 27.1384L200.609 31.4733L195.88 48.5532Z" fill="#C9D6DF"/>
<path id="Vector_9" d="M186.435 391.749L186.786 391.394L190.351 369.501L190.281 369.494L191.169 365.055L192.934 355.58L197.011 336.24L201.215 315.086L203.978 297.718L206.479 286.269L211.213 260.233L215.687 237.992L217.108 231.596L207.712 229.035L196.036 226.674L183.793 224.173L158.043 218.509L158.012 218.647L140.908 214.831L99.6363 204.642L96.3554 217.47L89.745 243.998L80.9333 277.14L79.0278 284.759L94.2399 307.964L94.2378 307.961L122.779 351.1L147.113 388.194L165.38 416.71L168.126 420.37L168.862 419.271L169.512 403.409L169.775 401.183L169.911 391.826L170.305 391.617L170.306 391.561L173.161 390.058L174.121 389.418H174.124L174.516 389.154H176.295L177.511 390.643L181.056 391.053L182.619 394.566L184.623 394.65L186.372 391.812L186.435 391.749Z" fill="#C9D6DF"/>
<path id="Vector_10" d="M301.295 368.388L306.031 332.608L310.107 304.077L313.308 276.53L303.143 275.213H303.138L281.964 272.32L281.959 272.318L272.915 271.028L275.127 255.139L277.008 242.22L272.336 241.408L261.812 239.698L248.786 237.33H248.79L233.795 234.701L218.618 231.941L217.321 238.304L212.85 260.525L208.115 286.571L205.618 298.004L202.859 315.356L198.646 336.553L194.569 355.886L192.67 365.382L192.214 367.824L233.544 375.887L267.722 381.801L298.92 386.511L299.454 382.462L301.295 368.388Z" fill="#C9D6DF"/>
<path id="Vector_11" d="M335.063 534.129L335.1 534.136L335.099 534.129L346.187 535.138L382.603 538.686L418.278 540.746L421.101 511.116L425.967 440.225L426.024 439.571L428.001 415.59H429.03L429.632 402.08L412.953 400.856L388.785 399.235L342.47 393.579L300.455 388.438L295.187 426.854L295.189 426.847L286.377 494.844L281.64 529.176L279.127 545.386L296.785 547.668L298.365 534.763L319.919 538.171L335.897 540.245L335.217 535.034L335.063 534.129Z" fill="#C9D6DF"/>
<path id="Vector_12" d="M434.076 101.445L431.182 133.267L430.189 147.175L437.193 147.673L499.765 151.767L571.738 154.223L571.912 154.228L571.599 147.888L571.3 144.376L568.934 135.058L566.56 117.75L566.04 105.266L563.72 101.015L561.693 94.3868V81.049L562.588 76.1847L560.335 69.778L524.037 69.1303L500.746 68.3407L467.587 66.6293L437.199 64.3322L435.654 82.1043L434.076 101.445Z" fill="#C9D6DF"/>
<path id="Vector_13" d="M427.895 174.958L426.187 197.827L424.261 229.94L442.961 231.205L468.211 232.652L490.564 234.099L520.163 235.533L533.724 235.007L533.74 235.025L534.25 235.004L537.05 238.086L543.052 241.871L544.073 242.704L548.88 241.216L553.832 240.548L557.554 240.261L557.604 240.297L558.079 240.261L560.58 242.066L566.855 244.158L570.89 246.463L571.474 248.819L572.427 250.932H573.561L572.323 248.93L570.159 245.033L572.643 239.225L574.229 232.407L570.952 229.89L570.354 225.841L571.787 221.865H574.633L575.106 213.935L574.848 175.323L574.493 172.787L569.498 168.557L567.87 165.899V165.326L567.745 165.114V162.557L570.625 160.249L572.114 158.763L572.149 158.413L571.989 155.768L571.704 155.759L500.346 153.698L437.136 149.209L430.681 148.786L429.866 154.73L427.895 174.958Z" fill="#C9D6DF"/>
<path id="Vector_14" d="M535.124 320.9L590.48 321.428H596.567L593.611 317.484L593.527 317.373L590.209 312.123L590.48 309.202L589.221 306.884L588.344 306.972L586.028 299.432L585.763 290.907L583.808 285.685L582.897 279.051L580.017 274.336L578.813 268.072L575.397 258.348L574.152 252.469H573.818L573.797 252.47H570.91L569.491 249.325L569.032 247.472L565.697 245.568L559.344 243.45L557.158 241.872L554.52 242.075L549.739 242.72L543.882 244.532L543.738 244.415L543.355 244.534L541.626 243.12L535.528 239.275L533.084 236.587L520.372 237.081L520.155 237.071L519.846 237.083L489.954 235.635L467.589 234.186L467.593 234.188L442.339 232.739L423.718 231.481L418.381 286.127L460.042 289.664L460.033 289.795H460.036L458.085 318.04L484.497 319.056L535.124 320.9Z" fill="#C9D6DF"/>
<path id="Vector_15" d="M678.521 222.741H674.792L652.175 223.662L589.952 224.581H574.522L574.598 223.534H573.52L572.588 226.133L573.04 229.185L576.602 231.927L574.765 239.84L572.525 245.075L574.459 248.456L575.516 250.816L576.358 250.76L577.93 258.204L581.353 267.942L582.522 274.042L585.43 278.796L586.355 285.576L588.345 290.876L588.609 299.433L590.592 305.072L592.554 304.984L602.433 304.852L619.255 304.589L651.076 303.407H651.069L663.41 302.881L673.651 301.914L675.279 305.166L678.528 308.417L679.877 307.387L679.662 305.205L679.669 305.142L679.662 305.077L679.989 302.955L682.347 301.225L684.267 300.797V297.702L685.325 295.295L687.579 293.292L687.801 288.835L685.735 286.891L684.594 284.774L684.622 284.691L684.594 284.643L685.631 281.68L686.702 278.936L693.61 277.139L695.836 276.274L698.431 274.265L699.308 271.156L701.534 266.443L702.39 262.391L701.597 259.89L696.699 255.527L696.163 253.095L695.238 251.967L692.608 251.13L692.059 250.954L692.024 250.337L691.906 249.038L690.438 245.975L687.05 245.492L683.585 243.904L680.204 238.548L680.163 237.903L679.808 237.344L679.523 232.831L682.131 228.523L682.117 228.438L679.481 226.522L679.244 225.432L679.084 225.317L678.521 222.741Z" fill="#C9D6DF"/>
<path id="Vector_16" d="M574.09 154.291L573.687 158.432L573.77 159.802L571.788 161.785L569.408 163.685V164.894L570.542 166.749L575.809 170.933L576.379 175.101V175.208L576.511 176.149L576.776 215.029L576.261 221.865H588.888L651.083 220.945L673.7 220.025L678.229 219.908L677.324 212.691L674.91 209.428L665.95 204.156L661.184 196.94L656.801 196.408L654.596 192.384H650.387L646.275 188.131L645.733 179.278V174.048L648.056 170.053L647.256 166.525L644.369 164.119L643.298 163.586L646.519 155.102L653.17 150.047L654.415 148.239V137.664L654.693 133.872L657.977 129.277L658.123 129.426L662.582 125.247L662.812 125.209L664.12 124.991L669.699 118.633L671.863 117.616L674.646 112.807L677.742 108.096L681.728 104.662L687.878 101.989L699.433 96.7344L704.373 94.2647L704.783 92.7745L700.741 93.1599L699.795 94.6459H698.132L695.906 90.7166L685.471 91.0833L684.274 92.1463H682.271L681.436 89.9716L680.65 88.3033L678.187 88.7965L674.187 92.9269L671.8 94.1186H667.675L663.751 92.707V90.1879L663.202 90.0975L662.429 90.8732L658.304 88.7304L657.74 85.5678L657.024 85.8231L656.231 87.2528L652.565 86.4541L645.726 83.2365L641.002 80.0461H637.301L635.819 78.9358L633.482 79.5716L632.334 80.7188L631.854 82.8094H624.292V80.1414L616.542 79.7532L616.423 79.1772L616.159 77.9437H610.412L607.922 75.458L606.023 67.3226L605.035 60.6181L602.996 59.7597L600.374 59.1635L600.297 59.1913L599.894 69.9203H562.33L564.303 76.0709L563.36 81.1891V94.1568L565.276 100.416L567.69 104.844L568.226 117.613L570.584 134.763L572.956 144.135L573.137 147.795L573.687 154.279L574.09 154.291Z" fill="#C9D6DF"/>
<path id="Vector_17" d="M656.606 137.568V148.563L654.95 150.965L648.452 155.905L645.885 162.682L649.294 165.524L650.338 170.149L647.924 174.307V179.073L648.432 187.318L651.694 190.694H656.161L658.429 194.825L662.728 195.345L667.688 202.857L676.614 208.109L679.459 211.947L680.767 222.741H680.225L680.621 224.533L683.376 226.54L683.536 227.572L683.773 227.744L684.128 230.046L681.477 234.418L681.672 237.416L684.246 241.495L687.091 242.8L691.057 243.365L692.775 246.601L703.44 247.116L737.564 244.885L749.029 243.317L749.098 240.267L747.143 234.525L746.357 226.676L744.848 223.372L746.114 219.152L747.185 215.389L748.938 212.264L748.194 208.193L747.373 203.409L748.124 200.859L750.573 197.77L750.796 194.703L749.71 192.934L750.566 189.366L751.234 185.079L754.692 177.76L758.323 169.204L758.567 166.577L758.504 166.369L758.448 166.404L753.272 174.29L749.801 179.5L747.373 181.672L746.288 184.65L744.388 185.737L742.761 188.54L739.839 187.914L739.484 184.905L741.154 181.561L743.839 175.386L746.093 173.266L747.15 171.147L745.592 170.272L743.63 168.309L743.554 167.818L743.491 167.755L741.633 155.364L737.265 153.99L735.574 151.128L720.164 147.632L716.992 146.178L706.71 143.315L696.059 141.83L691.411 135.673L691.029 136.587L688.615 136.148L688.441 135.826L687.801 134.653L684.858 133.749L683.71 133.956L681.178 135.299L679.132 133.935L680.127 130.791L682.722 126.69L682.785 126.628L683.599 125.814L682.159 124.756L680.009 125.618L676.336 128.11L666.86 132.246L662.951 133.084L658.902 132.358L656.842 134.339L656.606 137.568Z" fill="#C9D6DF"/>
<path id="Vector_18" d="M734.134 404.821L732.861 402.699L729.181 403.089L726.454 400.063L724.339 394.42L725.494 390.699L723.024 386.858L720.526 380.75L714.961 379.867L706.668 372.937L703.558 367.56L704.553 363.135L707.447 355.517L708.24 351.42L705.486 350.042L697.249 349.5L695.704 347.273L695.955 341.917L689.276 337.381L679.884 327.46L676.92 317.88L676.364 312.89L677.4 310.099L673.616 306.202L672.35 303.673L663.125 304.545L650.742 305.073L618.9 306.256L602.057 306.518H602.064L590.981 306.765L591.948 308.694L592.046 308.878L591.788 311.743L594.787 316.496L594.822 316.538L599.1 322.054L602.37 324.997L605.215 325.255L607.421 326.785V331.349L604.993 333.506L604.568 335.85L607.017 339.892L610.078 343.593L613.425 346.105L615.178 361.347V361.375L614.259 406.233L614.739 406.205L615.038 412.634L615.505 420.425L643.325 419.799H643.318L672.51 418.874L698.55 417.691L712.811 417.149V417.156L712.936 417.149L715.698 421.594L715.072 425.045L710.982 428.614L710.348 431.313L716.944 431.758L722.739 430.652L725.174 423.584L725.257 421.205L725.16 415.89L725.452 415.743L725.459 415.465L726.022 415.458L727.212 414.86L727.629 414.359L730.503 412.035L730.767 411.889L730.83 411.813L732.826 410.714L733.07 406.95L734.134 404.821Z" fill="#C9D6DF"/>
<path id="Vector_19" d="M714.474 457.387L715.546 451.898L715.045 450.048L713.793 446.917L714.147 446.722L714.12 446.625L719.066 443.842L719.4 441.053L721.132 435.32L722.023 432.725L717.16 433.442L708.415 432.843L708.443 432.725L708.276 432.711L709.465 427.772L713.521 424.238L713.953 421.9L711.977 418.721L698.745 419.229H698.752L672.705 420.411L643.5 421.337L615.693 421.963L617.543 430.214V440.774L619.248 454.709L619.505 502.559L621.418 504.215L624.653 502.712L625.363 503.011L625.44 502.976L629.614 504.743L630.351 517.913H656.739L680.81 516.73H693.965L695.169 514.323L694.675 509.147L692.797 504.966L694.445 503.324L692.894 500.945L693.485 498.287L694.703 490.162L698.223 486.774L697.339 484.241L702.3 477.006L705.444 475.921V474.028L704.422 472.136L708.15 464.817L708.31 464.755L708.415 464.553L711.378 463.301L711.434 461.652L711.184 458.897L714.474 457.387Z" fill="#C9D6DF"/>
<path id="Vector_20" d="M482.271 403.889L538.676 406.519L596.77 407.041L612.604 406.164L613.64 361.417L611.978 346.94L609.007 344.713L605.758 340.79L602.948 336.149L603.574 332.706L605.883 330.653V327.592L604.673 326.751L601.723 326.486L597.806 322.959H590.467L535.088 322.437L484.442 320.726L457.976 319.71L452.954 401.997L468.333 403.103L482.278 403.889H482.271Z" fill="#C9D6DF"/>
<path id="Vector_21" d="M685.366 616.256L685.86 615.011L682.737 613.905L679.787 614.496L681.978 615.275L685.366 616.256Z" fill="#C9D6DF"/>
<path id="Vector_22" d="M781.525 568.107L795.021 566.312L827.127 562.632L835.705 561.839L842.307 561.616L841.765 558.618L840.095 557.665L838.968 556.162L840.102 552.767L839.726 546.179L837.73 540.467L838.015 537.775L838.683 533.476L840.888 527.388L840.686 525.385L838.21 524.348L837.521 519.77L834.272 515.485L831.587 507.304L829.75 498.364L827.649 492.193L825.798 484.262V484.269L822.786 471.698L818.57 461.555L817.763 457.102L817.492 454.403V452.713L805.7 453.687L770.846 456.97L762.052 457.548L761.822 464.762L762.087 485.939L761.029 525.663L760.772 543.487L764.181 567.377L766.094 586.153L769.259 586.717L769.315 586.731L769.44 586.773L770.72 583.899L772.78 577.583L776.71 578.654L780.759 586.752V588.505L778.61 590.077L779.883 590.223L786.847 587.461L786.603 577.889L783.688 575.676L781.163 573.144L781.031 573.019L781.525 568.107Z" fill="#C9D6DF"/>
<path id="Vector_23" d="M1038.69 397.969L1039.01 401.134L1038.72 398.024L1038.69 397.969Z" fill="#C9D6DF"/>
<path id="Vector_24" d="M1036.72 408.349L1036.63 408.418L1037.18 408.161L1036.72 408.349Z" fill="#C9D6DF"/>
<path id="Vector_25" d="M898.861 399.242L898.123 402.178L894.394 405.51L892.258 410.491L888.954 410.039L886.756 410.7L883.715 415.542L883.166 415.389C883.166 415.389 883.131 415.382 883.082 415.368L883.054 415.41L882.505 415.264C882.505 415.264 882.428 415.243 882.282 415.208C882.206 415.187 882.108 415.166 881.997 415.138C881.614 415.076 881.197 415.02 880.87 415.027C880.64 415.027 880.411 414.978 880.216 414.895H880.209C879.764 414.902 879.346 414.721 879.082 414.463C879.019 414.408 878.964 414.352 878.915 414.29L874.866 418.443L874.045 422.547L868.271 425.295L862.991 429.915L858.079 431.779L853.16 435.091L852.346 440.009L848.597 440.872L846.76 442.389L846.461 447.098L851.7 446.765L853.432 446.632L857.056 446.201L862.587 445.45L869.899 444.142L872.988 443.23V443.237L879.096 440.656L890.637 434.812L890.971 434.778L891.159 434.68L900.537 433.609L921.519 432.941L924.754 435.738L926.688 439.599L931.676 439.008L947.608 437.143L951.538 438.27L967.456 448.086L979.909 458.223L985.906 456.115L991.36 455.509L991.909 452.866L994.456 444.427L998.79 438.194L1007.1 431.23L1013.84 427.995L1017.59 427.125L1017.83 427.236L1019.12 427.821H1020.11L1023.69 422.026L1024.74 420.078L1022.07 422.742L1021.06 420.022H1015.28L1017.99 411.333L1017.34 410.289H1014.51V408.425L1013.64 404.626L1017.31 407.604L1018.93 407.84L1021.74 408.202L1026 406.31L1027.45 402.943L1028.32 400.042L1031.51 398.386L1031.84 393.836L1029.52 392.097L1033.63 391.735L1033.13 389.919L1030.17 386.831L1025.62 378.399L1023.73 372.965L1023.1 373.132L1018.65 374.739L1004.26 378.441L980.173 383.31L954.377 388.18L932.915 391.471L913.206 393.968L904.162 395.694L903.181 395.562L903.104 395.575L902.026 395.395L899.083 394.984L898.861 399.242Z" fill="#C9D6DF"/>
<path id="Vector_26" d="M855.059 401.322L789.803 407.652L770.08 409.886L764.25 410.546H760.111V415.5L748.883 416.202L740.047 416.996L726.933 417.253L726.794 421.218L726.843 423.702L724.026 432.44L723.733 432.482L723.594 432.899L722.996 435.369L721.298 440.983L720.867 444.587L720.498 444.795L720.471 444.983L715.949 447.488L716.512 449.568L717.403 451.794L716.129 457.874L715.997 458.027L715.886 458.153L715.83 458.452L715.482 458.612L715.288 458.828L723.142 458.737L753.377 456.24L760.57 455.968V455.871L770.992 455.307L805.832 452.024L817.492 450.945V450.918L828.95 449.658L839.448 448.211L844.234 447.383L844.61 441.491L847.24 439.327L850.336 438.611L851.094 434.061L856.701 430.269L861.522 428.447L866.761 423.869L872.034 421.358L872.793 417.566L877.948 412.272L879.923 411.611V411.966L880.584 411.743V412.814L880.591 412.877L880.619 413.107C880.64 413.211 880.682 413.315 880.723 413.385C881.301 413.434 881.871 413.538 882.282 413.628C882.31 413.635 882.33 413.635 882.351 413.642L885.099 409.266L888.167 408.341L890.644 408.682L892.46 404.459L896.091 401.217L896.669 398.907V394.977L895.994 395.012L893.114 397.391H892.884L892.724 397.523L882.511 397.794L867.54 400.16L862.74 400.508L855.268 401.21L855.059 401.322Z" fill="#C9D6DF"/>
<path id="Vector_27" d="M706.891 141.253L717.389 144.178L720.526 145.617L736.423 149.222L738.148 152.148L742.928 153.65L743.011 154.186L743.067 154.203L745.001 167.089L746.42 168.507L747.707 169.395L752.034 159.909L753.217 154.785L755.895 148.72L756.257 148.628L757.829 148.236L759.346 150.448H759.534L765.558 147.085L767.687 149.518L767.722 149.534L768.807 148.54L770.317 144.429L773.775 143.226L782.346 142.458L784.857 139.152L791.765 138.871L799.147 140.583H801.129L805.241 138.728L808.184 138.996L810.834 138.201L815.815 138.894L815.864 138.912L814.654 138.304L810.257 134.05V125.323L809.38 125.01L808.135 126.258L800.176 128.417L797.47 129.13L793.491 127.992L793.4 127.941L792.371 127.324V120.32L791.431 120.186L788.342 121.794L782.533 124.361L774.213 124.756L770.261 126.117L765.183 130.673L762.824 131.995H761.412L759.715 133.127L757.245 132.302L755.589 130.869L754.059 131.85L748.639 132.143L744.889 128.247L743.074 124.352L741.494 123.111L737.661 121.999H734.545L733.23 120.576L729.375 123.75L727.81 125.662L725.772 124.387L726.252 120.418L729.292 116.182L730.009 112.766L733.007 111.677L734.865 107.688L739.547 106.517L739.658 106.186L738.802 105.335L733.411 105.934L728.116 108.961L725.341 111.735L723.685 114.084L721.452 115.133L719.17 118.499L718.878 120.429L713.075 123.329L709.952 125.906L702.501 127.083L702.111 127.47V128.753L697.2 131.932L693.756 132.99L692.232 133.838L696.761 139.843L706.891 141.253Z" fill="#C9D6DF"/>
<path id="Vector_28" d="M823.754 137.488C823.719 137.346 823.677 137.229 823.656 137.179C823.573 137.115 823.503 137.051 823.434 136.98L823.128 136.642C822.912 136.394 822.668 136.1 822.446 135.815C822.223 135.533 822.015 135.261 821.855 135.058L819.531 135.279L818.084 135.472L817.979 135.847L818.633 136.212L818.926 136.375L819.663 139.31L822.829 139.515L823.907 138.438L823.9 138.339C823.865 138.079 823.816 137.745 823.754 137.488Z" fill="#C9D6DF"/>
<path id="Vector_29" d="M805.562 258.694L814.028 257.832L814.154 258.531C814.188 258.893 814.223 259.253 814.258 259.615L823.135 258.175L836.047 256.066L840.847 255.585L840.193 255.035L840.541 252.633L843.296 247.661L845.627 245.58L845.362 239.177L847.7 236.685L847.895 236.627L848.695 236.387L848.938 232.163L851.352 227.335L853.62 228.695L853.711 228.965L853.843 229.354L854.219 229.448L855.993 228.609L855.123 217.415L851.067 206.952L848.194 195.476L845.335 191.496L842.594 189.633L840.868 190.819L836.228 192.952L833.807 199.199L830.224 204.154L828.297 205.206L826.078 204.254L826.043 204.233C826.022 204.221 824.7 203.489 823.719 202.685C823.392 202.411 823.093 202.139 822.864 201.799C822.738 201.603 822.613 201.371 822.606 201.03L822.662 200.687V200.692V200.685V200.687C822.669 200.673 822.704 200.515 822.738 200.312C822.773 200.097 822.808 199.819 822.843 199.506C822.912 198.878 822.989 198.101 823.052 197.349C823.184 195.844 823.281 194.439 823.281 194.436L823.316 193.952L827.734 192.212L828.694 188.261L829.549 184.689L832.471 182.655L832.102 170.407L830.335 167.823L828.68 166.717L827.365 163.261L829.055 161.571L829.452 161.646L830.753 161.891L830.864 160.979L828.019 158.255L826.593 155.277H823.664L817.806 153.369L810.939 149.096H808.324L807.35 150.07L806.842 149.789L805.611 149.104L802.167 146.493L798.974 148.434L795.655 151.043L795.968 154.73L796.643 154.955L799.544 155.681L800.894 157.833L796.594 159.207L793.54 159.575L792.031 161.409L791.683 163.7L792.065 165.727L792.49 173.346L787.314 176.39L786.98 176.279L785.665 175.841V169.714L787.286 166.471L787.947 163.818L787.571 163.439L785.915 164.136L784.733 169.527L781.108 171.062L779.118 173.283L778.972 173.925L779.772 174.983L778.785 179.087L776.023 179.714V180.423L777.101 183.649L775.605 191.805L773.678 196.818L774.423 202.561L775.16 204.178L774.005 207.633V207.649L773.643 208.61L773.289 211.812L777.651 219.258L781.373 227.627L783.279 234.03L782.2 240.249L780.997 247.979L777.978 254.54L777.567 258.233L774.061 261.744L777.964 261.584L805.562 258.694Z" fill="#C9D6DF"/>
<path id="Vector_30" d="M714.669 95.4315L718.753 93.0063L724.04 87.6105L722.593 88.0049L715.789 92.9798L713.104 94.0032L711.469 95.8141L712.45 96.4284L714.669 95.4315Z" fill="#C9D6DF"/>
<path id="Vector_31" d="M758.574 543.723L758.839 525.767L759.889 486.064L759.625 464.901V457.673L754.003 457.896L723.741 460.393L712.999 460.532L712.971 461.604L713.201 464.191L712.888 464.331L712.881 464.491L709.423 465.952L706.418 471.851L707.239 473.375V477.271L703.545 478.551L699.301 484.728L700.254 487.456L696.407 491.17L695.259 498.83L694.793 500.903L696.671 503.783L694.89 505.564L696.435 509.008L696.998 514.894L695.301 518.038L695.656 524.411L698.313 530.394L698.077 532.55L701.012 534.957L699.851 540.092H699.621L699.593 540.224H699.037L699.837 541.991L693.068 554.033L688.81 561.783L687.913 571.753L688.26 573.13L718.001 572.226L728.36 571.307L731.143 571.001L732.534 572.782L731.094 582.445L735.296 586.39L736.778 591.51L737.94 593.639L738.121 593.507L741.69 587.656L744.285 588.881L752.716 586.418L755.652 586.856L757.44 587.879H763.479L764.453 586.814L762.004 567.711L758.574 543.723Z" fill="#C9D6DF"/>
<path id="Vector_32" d="M760.097 372.882L767.646 371.671L772.578 370.941L774.575 373.654L775.973 374.315L777.984 370.537L782.332 368.36L785.288 370.851L785.344 370.927L786.095 371.95L787.605 371.574L787.348 367.393L791.41 365.076L793.463 363.587L795.125 366.009H800.121L800.9 364.047L800.489 361.027L804.427 356.109L810.166 351.26L810.862 345.172L814.765 344.72L819.447 342.571L822.431 340.393L822.271 339.391L820.31 337.429L820.435 336.894L820.184 336.636L820.477 335.335L820.066 335.356L819.343 327.265L816.052 297.288L813.819 279.793L812.177 260.393L812.685 260.31L812.553 259.763L805.456 260.485L777.817 263.381L771.284 263.678L768.487 265.335L765.781 267.907L763.819 268.441L761.781 267.131L759.256 266.346L760.146 278.851L760.243 280.045L761.816 299.644L763.395 320.03V320.037L764.063 329.06L764.056 329.102L764.063 329.192L763.019 336.233L763.381 340.087L765.614 343.642L766.31 351.573L766.303 351.587L766.31 351.705L762.915 357.271L760.661 362.307L757.843 365.897L757.224 371.365L757.405 374.809L760.097 372.882Z" fill="#C9D6DF"/>
<path id="Vector_33" d="M704.129 249.331H693.505L693.533 249.812L696.135 250.641L696.142 250.642L697.582 252.407L698.097 254.712L702.932 259.025L703.976 262.313L703.002 266.939L700.755 271.695L699.781 275.167L699.502 275.381L696.601 277.752L694.083 278.733L687.843 280.355L687.07 282.346L686.291 284.561L686.973 285.814L689.373 288.077L689.366 288.201L689.373 288.206L689.074 294.143L686.59 296.351L685.804 298.147V302.16L682.994 302.785L681.407 303.948L681.22 305.183L681.505 308.076L681.491 308.087L681.498 308.142L679.313 310.327L678.451 312.686L678.952 317.171L681.769 326.264L690.799 335.808L698.055 340.741L697.784 346.432L698.605 347.621L706.418 348.136L710.494 350.175L709.451 355.545L706.55 363.184L705.708 366.92L708.386 371.532L716.143 378.023L722.147 378.976L724.909 385.752L727.699 390.072L726.488 393.975L728.318 398.859L730.308 401.071L732.513 400.758L733.202 399.117L733.299 398.803L733.355 398.762L733.459 398.511L736.625 396.069L739.686 395.151L743.338 396.981L747.54 398.581L748.131 398.428L748.305 396.515L746.719 393.342L747.185 389.892L747.283 389.822L747.31 389.627L750.198 387.498L753.586 386.691L754.532 386.309L753.892 384.945L752.925 381.87L753.092 381.745L753.05 381.606L754.636 380.451L755.68 376.019V371.337L755.687 371.317L755.68 371.226L756.368 365.16L759.339 361.375L761.558 356.422L764.731 351.218L764.118 344.275L761.885 340.727L761.461 336.247L761.468 336.198L761.461 336.115L762.511 329.046L761.864 320.281L760.285 299.894V299.897L758.706 280.292L758.608 278.911L757.572 265.863L756.194 264.947L755.06 261.406L753.537 256.826L751.61 254.645L749.641 251.125L749.46 246.333L737.564 247.223L704.129 249.331Z" fill="#C9D6DF"/>
<path id="Vector_34" d="M873.147 444.928L873.328 446.959L873.426 447.613L870.267 448.907L869.425 450.903L869.745 452.691L870.114 453.095L871.102 454.166L875.937 457.387L880.473 457.116V457.123L884.981 464.156L885.009 464.247L885.023 464.282L885.677 465.917L888.508 469.367L888.557 469.499L888.766 469.757L889.232 471.065L894.526 473.152L898.505 476.171L901.365 479.817L904.217 481.5L907.007 484.158L907.139 484.415L907.264 484.54L908.718 487.567L911.028 489.758L916.433 492.325L916.586 492.666L916.691 492.715L920.239 500.632L922.096 506.093L925.032 506.796L928.211 509.697L928.295 509.919L928.469 510.079L930.118 514.886L930.73 516.918L933.206 518.205L935.085 517.21L935.127 517.189L937.756 516.18L943.67 509.537L942.341 504.827L946.682 504.514L951.044 500.291L953.068 499.275L955.886 495.045L959.288 491.518L962.029 486.718L965 485.939L966.405 482.488L968.255 481.507L968.882 473.778L972.277 465.638L978.141 459.662L966.036 449.47L950.39 439.821L946.953 438.84L931.328 440.663L925.269 441.386L922.987 436.83L920.44 434.631L900.119 435.278L891.416 436.273L880.271 441.915L873.147 444.928Z" fill="#C9D6DF"/>
<path id="Vector_35" d="M1041.07 233.104V222.972L1039.24 213.699L1038.32 208.761L1038.6 208.699L1037.53 202.021L1038.35 187.788L1038.56 187.752L1037.93 181.478L1034.26 168.081L1030.14 166.097L1030.16 166.028L1029.48 165.712L1030.64 161.65L1029.71 159.313L1026.29 153.309L1027.51 148.166L1026.49 141.814L1023.47 133.507L1022.89 127.874L1014.31 130.256L1008.54 132.138L1004.42 131.873L997.621 133.542L993.829 135.059L990.956 137.307L988.396 140.381L985.001 145.078L981.356 150.81L979.498 154.519L978.635 155.676L971.484 162.569L971.699 165.278L972.513 166.392L974.413 167.286H977.244V170.093L975.839 172.645L976.145 174.054L978.058 176.786L977.731 180.355L974.712 182.105H972.249L970.545 184.257L968.277 188.533L965.348 191.02L958.655 191.689L955.539 193.062L952.721 194.893L950.286 194.569L947.844 192.898L940.254 193.15L936.289 193.791L925.777 197.293L922.681 199.173L924.851 206.015L927.043 206.274L928.817 210.701L928.831 210.761L929.193 212.406L927.453 213.828L924.963 217.197L924.281 219.381L921.575 221.799L919.453 223.175L918.298 225.221L916.594 226.785L914.047 228.549L914.583 235.943L924.914 234.241L978.816 223.067L1002.49 217.851L1005.55 220.771L1009.52 222.002L1012.62 229.005L1015.19 231.226L1018.44 231.485L1021.04 233.287L1020.6 233.768L1024.59 235.454L1029.52 236.62L1035.24 237.817L1039.01 239.479L1039.33 242.795L1038.68 246.312L1039.36 250.076L1040.56 250.502L1045.43 249.128L1052.77 246.638L1055.94 245.498L1064.79 238.728L1069.6 235.088L1073.01 231.355L1069.29 229.867L1068.05 231.318L1064.25 234.975L1053.96 240.122L1050.74 239.83L1048.99 239.133L1047.98 239.684L1045.15 242.9L1043.14 244.77L1040.61 245.401L1039.93 242.472L1042.56 240.256L1042.6 239.94L1039.48 236.293L1041.07 233.104Z" fill="#C9D6DF"/>
<path id="Vector_36" d="M1017.59 277.715L1019.35 274.321L1021.39 271.323L1024.98 267.85L1022.33 266.006L1022.32 266.004L1017.66 262.707L1016.55 259.641L1013.04 259.236L1012.94 258.676L1012.68 257.268L1011.47 253.141L1011.86 252.942L1011.73 252.484L1014.59 251.051L1014.75 249.211L1013.16 247.486L1013.48 244.858L1013.71 244.499L1013.75 244.199L1015.95 240.714V236.954L1016.22 236.637V236.275L1018.19 234.12L1017.6 233.64L1014.3 233.375L1011.09 230.6L1008.14 223.922L1004.49 222.79L1001.75 220.186L978.872 225.227L924.928 236.41L912.927 238.387L912.071 230.058L906.687 235.645L905.045 236.329L900.238 239.817L903.848 263.817V263.816L905.956 277.618L910.291 301.458L915.341 300.654L930.187 298.686L977.641 288.826L996.188 285.275L1006.34 283.217L1007.79 281.773L1010.73 279.423L1013.7 279.96L1014.89 279.306L1017.59 277.715Z" fill="#C9D6DF"/>
<path id="Vector_37" d="M882.478 369.347L879.096 365.702L875.305 360.818L874.561 358.084L871.346 356.289L870.115 353.827L869.879 347.83L865.739 344.943L863.228 343.614L862.497 340.323H862.149L860.32 341.715L856.347 345.541L855.937 345.054L855.297 345.666L853.37 343.419L850.768 342.967L848.166 344.553L847.442 344.483L847.115 344.685L843.957 344.365L841.731 342.146L834.162 341.742L831.977 335.871L829.097 334.229L827.093 334.925L826.293 334.966L826.043 335.05L822.411 335.238L822.133 336.413L823.587 337.867L823.712 338.653L823.719 338.66L824.22 341.868L820.359 344.692L815.315 347.009L812.379 347.35L811.76 352.832L805.659 357.98L802.236 362.265L802.612 365.034L801.29 368.332H794.445L793.22 366.544L792.378 367.156L789.067 369.048L789.345 373.549L785.588 374.489L784.287 372.694L782.249 370.975L779.237 372.478L776.774 377.118L773.699 375.671L772.015 373.389L768.008 373.981L760.787 375.136L757.357 377.153L756.049 381.32L756 381.355L755.952 381.564L755.722 381.731L754.887 382.336L755.451 384.117L756.828 387.046L756.62 387.129L756.703 387.31L753.927 388.423L750.734 389.189L748.724 390.67L748.431 392.813L749.997 395.958L749.67 399.596L749.565 399.624L749.544 399.861L747.339 400.466L742.594 398.65L739.415 397.057L737.217 397.725L734.629 399.721L734.288 400.848L736.271 404.508L734.977 407.096L734.698 411.437L734.309 411.653L734.302 411.694L731.77 413.093L730.114 415.131L729.522 415.423L739.972 415.326L748.765 414.54L758.575 413.927V408.884H764.161L769.907 408.23L789.644 405.99L854.747 399.548H854.761L855.137 399.52L857.725 398.073L864.828 393.732L869.315 391.311V388.813L871.75 386.378L877.42 379.518L882.7 374.899L884.474 373.069L885.657 371.365L882.478 369.347Z" fill="#C9D6DF"/>
<path id="Vector_38" d="M822.445 333.624L825.993 333.443L828.992 332.399L829.249 332.546L830.042 332.274L834.272 334.688L836.296 340.129L843.455 340.511L845.702 342.765L847.087 342.904L849.807 341.249L850.461 341.36L850.857 341.117L855.226 341.875L856.04 342.821L858.273 340.678L860.75 338.786H861.627L861.801 338.654H864.778L865.627 342.466L867.568 343.489L871.791 346.098L873.196 346.028L875.033 345.256L875.255 342.209L875.367 342.111L875.387 341.833L877.349 340.003L877.6 333.798L878.887 328.378L881.259 327.196L883.381 329.144L883.444 329.345L883.833 330.681L884.96 330.083L885.336 328.893L884.042 326.89V322.875L885.364 320.976L888.279 316.6L890.192 314.369L892.933 315.054L895.472 313.211L899.18 308.992L901.942 304.219L902.325 297.151L902.986 290.727V285.244L901.448 281.068L901.511 280.972L901.455 280.808L902.874 278.59L904.203 277.154L902.067 264.712L898.679 241.118L890.727 245.915L885.962 248.747L881.816 253.413L876.521 258.573L872.222 259.683L868.604 260.328L861.606 263.629L858.51 263.938L854.176 259.999L847.685 260.778L844.443 258.806L841.653 257.232L835.74 258.111L822.856 260.216L814.452 261.581C816.817 285.802 820.532 309.099 822.459 333.554L822.445 333.624Z" fill="#C9D6DF"/>
<path id="Vector_39" d="M969.264 310.616L961.291 306.187L956.686 304.368L956.463 310.203L955.76 313.019L953.632 316.607L952.797 318.84L949.026 321.964L948.303 325.143L944.17 325.526L943.836 328.886L942.25 336.643H937.972L936.045 335.356L934.236 332.093L933.143 332.218L932.789 337.2L930.117 345.882L924.023 359.211L924.913 360.665L924.9 360.902L924.92 360.93L924.614 365.027L921.477 368.012L921.08 367.921L919.591 367.601L915.459 370.801L912.495 369.73L910.38 375.463L909.97 375.553C909.97 375.553 908.78 375.818 907.5 376.096C906.206 376.374 904.85 376.666 904.404 376.743C904.3 376.764 904.203 376.778 904.112 376.778C903.646 376.764 903.298 376.604 902.93 376.416C902.575 376.228 902.22 375.998 901.9 375.769C901.67 375.602 901.462 375.442 901.288 375.303L898.609 377.87L894.922 378.753L890.838 377.585L889.078 375.678L886.984 372.687L885.662 374.05L884.334 375.971L879.046 380.59L873.404 387.415L871.366 389.446V392.215L866.12 395.053L859.31 399.214L862.6 398.977L867.741 398.497L882.761 396.125L892.313 395.874L895.173 393.509L895.416 393.495L895.576 393.363H896.668V392.966L898.936 393.335L899.173 393.328L899.166 393.377L902.317 393.892L903.131 394.003L911.911 392.326L931.655 389.822L953.068 386.538L978.83 381.675L1002.87 376.812L1017.18 373.139L1022.62 371.671L1023.49 371.358L1019.08 363.678L1018.18 363.845L1014.1 364.631H1014.11L1010.29 365.396L1009.23 363.636L1012.36 361.639L1012.16 359.427L1010.78 357.583L1008.72 355.962V354.501L1006.22 352.4V349.771L1010.41 351.259L1010.53 350.23L1009 347.545L1008.74 344.762L1007.5 343.509L1008.16 337.707L1006.99 336.441L1002.96 335.662L999.707 332.803L993.147 332.413L991.276 330.855H991.248L984.437 329.011L984.312 328.649L984.173 328.615L983.206 325.874V322.743L985.467 319.418L985.849 315.939L987.428 312.344L986.114 311.39L984.945 313.865L981.814 311.727L974.398 309.907V309.576L974.127 309.51V306.016L970.516 304.48L969.264 310.616Z" fill="#C9D6DF"/>
<path id="Vector_40" d="M1015.47 318.778L1015.44 318.639L1015.34 318.645L1013.21 309.997L1010.6 297.556L1007.71 290.345L1007.33 288.964L1006.1 285.382L996.619 287.304L978.072 290.853L931.898 300.425L933.172 305.999L934.104 311.663L936.024 309.357L939.106 305.148L942.202 304.879L943.795 303.288L946.369 299.506L948.345 300.495L951.58 300.148L954.703 297.648L957.333 295.715L960.178 294.924L962.537 296.543L966.259 298.406L968.854 300.725L970.092 301.963L975.665 304.749V305L975.929 305.113V308.37L982.183 309.904L984.062 311.185L985.251 308.661L989.397 311.675L989.328 311.828L989.662 312.071L987.624 316.739L987.22 320.364L985.008 323.613V326.006L985.495 327.376L991.436 328.99L991.818 329.304L996.841 329.178L1000.72 330.382L1002.71 330.681L1003.49 328.858L1001.75 326.382V324.121L998.845 321.588L996.062 314.089L997.669 307.148L997.44 304.899L995.568 302.872L996.027 302.353L996.174 302.176C996.271 302.063 996.403 301.902 996.556 301.712C996.848 301.338 997.21 300.849 997.44 300.45C997.6 300.192 997.683 299.949 997.676 299.945C997.69 299.368 997.871 298.725 998.038 298.136C998.205 297.555 998.379 297.085 998.379 297.076L998.462 296.842L1001.13 295.013L1004.32 292.332L1005.69 294.803L1003.6 297.197L1002.14 301.565L1002.34 302.318L1004.68 302.729L1005.44 310.961L1002.81 312.146L1003.01 314.537L1004.36 312.203L1007.56 315.82L1005.23 317.832L1004.89 321.567L1007.81 325.415L1012.13 325.999L1014.64 324.74L1018.94 331.662L1021.44 332.399V337.749L1018.53 343.955L1017.9 352.574L1019.5 356.345L1020.35 356.463L1022.57 351.663L1023.58 347.211L1023.86 338.007L1027.72 331.738L1030.28 323.056L1029.41 317.08L1022.47 318.485L1015.47 318.778Z" fill="#C9D6DF"/>
<path id="Vector_41" d="M1011.94 333.38L1012.72 334.66C1012.75 334.626 1012.78 334.591 1012.8 334.556L1012.91 334.354L1012.91 334.278C1012.88 334.159 1012.84 334 1012.8 333.805C1012.72 333.429 1012.61 332.949 1012.49 332.483C1012.27 331.558 1012.04 330.681 1012.03 330.674L1011.35 328.427L1010.54 328.698L1011.68 331.189L1011.94 333.38Z" fill="#C9D6DF"/>
<path id="Vector_42" d="M928.678 345.061L931.266 336.65L931.697 330.577L935.078 330.18L937.207 334.02L938.438 334.834H940.866L942.181 328.385L942.633 323.849L946.919 323.453L947.51 320.844L951.364 317.651L952.109 315.674L954.189 312.163L954.801 309.719L955.1 301.875L961.814 304.529L967.998 307.967L968.764 303.191L967.769 301.943L965.39 299.817L961.751 297.999L959.9 296.726L958.015 297.25L955.643 298.996L952.192 301.757L948.06 302.199L947.858 302.098L946.884 301.609L944.985 304.402L942.891 306.493L939.934 306.749L937.235 310.431L934.563 313.635L933.089 315.112L931.669 306.422L930.375 300.677L915.3 302.445L908.781 303.482L904.663 279.56L904.029 279.904L903.215 281.162L904.523 284.711V291.198L903.862 297.666L903.459 305.061L900.433 310.283L896.509 314.743L893.26 317.108L890.742 316.482L889.503 317.929L886.63 322.235L885.58 323.745V326.048L887.096 328.399L887.02 328.657L887.096 328.789L886.24 331.537L882.894 333.311L882.032 330.375L881.002 329.429L880.216 329.818L879.131 334.396L878.859 341.096L876.856 342.856L876.598 346.265L876.494 346.306L876.466 346.654L873.412 347.941L872.466 347.983L872.681 353.827L873.558 355.573L876.918 357.451L877.753 360.512L881.322 365.097L884.529 368.562L886.588 370.023L886.679 369.89L887.409 368.84L890.31 374.489L891.674 375.964L894.958 376.896L897.845 376.207L901.212 372.986L901.741 373.418L901.914 373.557C902.026 373.647 902.186 373.765 902.374 373.905C902.749 374.183 903.236 374.517 903.64 374.732C903.876 374.865 904.092 374.941 904.162 374.955C904.433 374.872 904.816 374.781 905.302 374.677C905.866 374.552 906.534 374.412 907.181 374.28C907.995 374.106 908.767 373.953 909.226 373.863L911.578 367.504L915.188 368.805L919.209 365.688L919.564 365.765L921.004 366.071L923.126 364.054L923.335 361.278L922.215 359.469L922.284 359.316L922.215 359.198L928.678 345.061Z" fill="#C9D6DF"/>
<path id="Vector_43" d="M1017.75 240.743L1017.49 241.161V241.401L1015.19 245.032L1015.03 246.311L1016.59 248.006L1016.27 251.929L1016.05 252.039L1016.01 252.588L1013.7 253.74L1014.45 256.257L1014.46 256.296L1014.62 257.183L1017.94 257.567L1019.2 261.075L1023.48 264.091L1023.47 264.088L1026.83 266.423V268.2L1026.56 268.456V268.859L1022.31 272.976L1020.4 275.767L1018.48 279.472L1015.4 281.295L1014.32 281.928L1014.18 282.808L1013.82 283.69L1013.19 286.341L1014.33 288.849L1018.21 292.351L1024.05 295.148L1029.64 296.006L1030.03 298.763L1029.79 299.029L1028.97 299.957L1029.25 302.485L1031.51 299.764L1032.57 293.624L1036.04 288.41L1039.79 280.26L1041.16 273.52L1040.42 272.155L1040.16 260.168L1038.53 256.805L1037.66 257.436L1033.67 257.895L1032.15 256.375L1034.23 254.672L1036.63 252.393L1036.73 251.315L1036.2 246.939L1036.86 243.38L1036.65 241.173L1033.85 239.942L1028.22 238.763L1023.65 237.151L1019.55 235.039L1017.75 237.192V240.743Z" fill="#C9D6DF"/>
<path id="Vector_44" d="M1115.67 130.44L1115.19 128.113L1114.24 127.382L1113.18 128.452L1114.71 130.984L1115.67 130.44Z" fill="#C9D6DF"/>
<path id="Vector_45" d="M1123.41 122.459C1123.51 122.461 1123.6 122.456 1123.7 122.45C1123.7 122.397 1123.71 122.354 1123.72 122.295C1123.74 122.024 1123.77 121.706 1123.81 121.398C1123.87 120.785 1123.94 120.227 1123.94 120.225L1123.97 119.959L1124.82 119.1L1124.3 117.99L1122.73 118.568L1121.56 120.717L1123.2 122.454L1123.41 122.459Z" fill="#C9D6DF"/>
<path id="Vector_46" d="M1070.06 127.049L1079.3 157.112L1079.64 160.23L1084.47 161.669L1085.14 165.651L1086.92 166.317L1088.55 158.225L1088.83 152.316L1090.56 150.715L1089.39 146.701L1093.97 141.178L1096.3 143.222L1097.4 142.769L1103.72 139.046L1104.14 135.174L1108.04 134.477L1109.71 131.693L1109.6 129.841L1109.18 125.651L1110.19 124.004L1109.93 123.046L1107.9 120.67L1111.96 118.025L1114.32 122.463L1116.33 122.031L1116.92 124.562V126.064L1118.02 126.18L1118.59 123.129L1118.71 122.975L1118.91 122.744L1117 120.962L1118.62 118.432L1121.65 116.592L1122.93 114.594L1126.27 114.202L1126.38 114.938L1126.4 115.086C1126.42 115.184 1126.45 115.322 1126.48 115.483C1126.55 115.804 1126.66 116.216 1126.78 116.535C1126.85 116.701 1126.92 116.838 1126.97 116.914H1128.03L1133.87 110.049L1138.24 105.956L1140.57 105.219L1143 99.6349V97.513L1140.26 93.032L1138.03 90.6855L1136.56 90.6222L1136.84 91.2274L1136.72 91.5314L1136.27 92.6731H1134.43L1130.25 89.3971L1129.98 83.0008L1129.18 81.0995H1121.64L1109.59 42.8635L1107.54 41.8374L1100.16 38.729L1098.8 38.5349L1096.78 40.5427L1091.93 44.0344V45.1398L1090.35 46.717L1086.18 45.7555L1084.35 42.3877V41.3956L1083.47 41.2495H1082.43L1080.04 46.1611L1076.37 57.567L1074.18 63.6154L1074.43 69.6087L1074.72 71.5762L1073.57 75.4519L1073.45 75.5806L1072.6 76.5455V83.6138L1075.2 86.896L1073.19 92.4811L1069.94 98.4633L1068.92 105.376V109.625L1066.25 108.862L1064.46 109.096L1069.95 126.702L1070.06 127.049Z" fill="#C9D6DF"/>
<path id="Vector_47" d="M1039.84 181.577L1040.68 187.37L1045.53 186.497L1052.29 185.424L1051 183.581L1051.73 181.081L1051.98 175.645L1050.8 173.937L1051.07 167.48L1052.12 155.658V144.873L1050.67 142.636V140.461L1054.28 138.878L1056.48 136.485L1058.56 134.096V129.488L1056.36 126.181L1056.21 125.969V125.955L1056.19 125.57L1055.84 119.213L1024.96 127.967L1025.89 133.538L1028.78 141.825L1029.87 148.619L1028.72 153.476L1031.75 159.046L1032.92 161.961L1032 165.188L1034.42 166.31L1034.42 166.314L1035.52 166.863L1035.56 167.015L1036.05 167.26L1039.84 181.577Z" fill="#C9D6DF"/>
<path id="Vector_48" d="M1077.78 157.427L1068.6 127.533L1068.44 127.03L1062.84 109.632L1061.91 112.129L1061.08 111.436L1060.26 110.756L1060.24 110.732L1059.68 110.18L1058.48 111.813L1057.35 118.458L1057.71 125.208L1057.72 125.446L1060.23 129.015V134.688L1057.63 137.505L1055.33 140.142L1052.48 141.452V142.18L1053.92 144.416V155.724L1052.87 167.577L1052.62 173.484L1053.81 175.194L1053.52 181.333L1052.94 183.319L1054.1 185.109L1075.58 179.803L1077.91 179.168L1080.37 175.345L1080.69 175.195L1080.78 175.072L1083.65 173.796L1085.22 173.049L1085.55 171.416L1086.46 168.492L1083.5 167.133L1082.85 163.212L1078.72 161.561L1078.22 161.413L1077.78 157.427Z" fill="#C9D6DF"/>
<path id="Vector_49" d="M1104.13 191.815L1104.55 192.419L1105.93 191.626L1104.14 191.805L1104.13 191.815Z" fill="#C9D6DF"/>
<path id="Vector_50" d="M1101.49 212.991L1103.35 212.187L1102.2 211.302H1100.85L1098.73 213.819L1099.14 214.117L1101.49 212.991Z" fill="#C9D6DF"/>
<path id="Vector_51" d="M1114.05 212.442L1113.27 210.728L1113.06 210.706L1112.59 212.684L1113.38 212.663L1114.05 212.442Z" fill="#C9D6DF"/>
<path id="Vector_52" d="M1075.57 181.555L1055.03 186.536L1055.07 186.598L1045.55 188.532L1040.3 189.714L1040.02 189.777L1039.45 201.816L1040.41 208.298L1066.4 202.55L1073.7 200.943L1073.71 200.964L1080.26 199.179L1080.37 199.254L1080.65 199.174L1083.16 200.896L1087.46 206.685L1090.53 211.872L1092.78 210.657L1092.19 208.042L1093.51 205.739L1098.24 203.373L1099.59 208.43L1101.99 205.579L1107.04 202.987L1111.76 201.332L1111.46 198.864L1110.33 195.371L1109.54 194.311L1110.71 198.259L1108.03 200.927L1104.81 202.248L1099.78 201.509L1094.75 193.634L1092.13 190.651H1090.49L1088.64 191.998L1085.47 187.831L1085.95 185.563L1088.84 179.294L1085.74 174.544L1084.29 175.191L1081.75 176.395L1079.15 180.422L1078.88 180.496L1078.76 180.686L1075.57 181.555Z" fill="#C9D6DF"/>
<path id="Vector_53" d="M1074.24 209.657L1072.35 202.954L1067 204.048L1040.73 209.857L1041.54 213.398L1043.4 222.821V233.469L1042.11 236.044L1043.49 237.496L1048.46 234.005L1052.87 229.849L1055.83 226.74L1056.37 227.15L1057.03 227.643L1060.12 225.984L1066.72 224.531L1075.9 220.348L1075.28 215.256L1074.24 209.657Z" fill="#C9D6DF"/>
<path id="Vector_54" d="M1075.87 209.313L1076.92 214.981L1077.87 219.295L1079.99 218.537L1082.82 216.199L1084.48 213.64L1084.97 213.723L1086.29 213.943L1089.01 212.488L1085.79 207.555L1081.67 202.02L1080.08 200.923L1074.12 202.549L1075.87 209.313Z" fill="#C9D6DF"/>
<path id="Vector_55" d="M1012.42 282.977L1012.63 281.664H1011.47L1009.08 283.574L1007.78 284.878L1008.79 288.502L1009.29 289.967L1012.2 297.243L1014.84 309.795L1016.63 317.053L1022.14 316.823L1029.07 315.297L1026.78 307.807L1026.01 308.237L1020.95 304.665L1018.65 298.443L1016.31 294.129L1013.43 292.95L1010.48 287.788L1011.67 284.937L1012.36 283.223L1012.42 282.977Z" fill="#C9D6DF"/>
<path id="Vector_56" d="M36.106 684.017L36.7091 684.865L36.106 683.523V684.017Z" fill="#C9D6DF"/>
<path id="Vector_57" d="M99.6164 669.073H99.6157L99.6314 669.059L99.6164 669.073Z" fill="#C9D6DF"/>
<g id="Outside Map" opacity="0.3">
<path id="Vector_58" d="M366.5 730.266L371.113 729.292L374.282 727.706V726.628L370.264 724.026L365.83 722.857L361.454 720.61L359.832 722.683L364.399 729.049L366.5 730.266Z" fill="#C9D6DF"/>
<path id="Vector_59" d="M379.262 742.393L379.024 742.866L378.471 743.972L376.079 747.346L374 748.271L374.089 750.038L376.244 751.812L378.081 758.032L377.402 760.606L377.755 764.856L380.974 767.152L382.191 767.243L384.303 764.543L386.891 761.135L390.522 759.02L390.884 759.18L392.057 759.715L395.972 758.407L399.629 755.36L399.789 754.832L395.876 752.39L393.837 747.763L392.258 745.454L388.884 743.332L381.033 739.665L377.903 738.156L376.967 738.879L377.325 740.305L379.262 742.393Z" fill="#C9D6DF"/>
<path id="Vector_60" d="M287.24 699.607L285.983 699.816L284.832 701.966L285.597 701.924L287.24 699.607Z" fill="#C9D6DF"/>
<path id="Vector_61" d="M302.043 700.54L303.494 697.186L302.981 694.424L299.41 693.993L295.733 695.6L294.949 698.536L300.435 700.825L302.043 700.54Z" fill="#C9D6DF"/>
<path id="Vector_62" d="M356.244 725.904L356.463 724.944L355.174 723.261L352.537 722.989V723.532L354.121 726.697L356.244 725.904Z" fill="#C9D6DF"/>
<path id="Vector_63" d="M331.691 713.764L333.238 713.076L334.825 714.516L337.955 714.411L338.295 713.945L335.798 712.422L333.739 708.442L331.885 705.381L326.768 707.942L326.435 709.11L329.775 714.071L331.691 713.764Z" fill="#C9D6DF"/>
<path id="Vector_64" d="M356.339 719.643L358.49 718.46L358.528 718.335L353.45 717.806L352.753 718.363L348.042 717.34L347.604 718.001L352.172 719.274L356.339 719.643Z" fill="#C9D6DF"/>
<path id="Vector_65" d="M55.4819 660.642L55.4249 660.523L54.7925 659.181L53.877 660.426L53.9584 662.054H55.9919L58.193 663.786L59.9364 667.772L61.7654 668.009L61.7779 667.926L59.766 662.951L57.1773 662.339L55.4819 660.642Z" fill="#C9D6DF"/>
<path id="Vector_66" d="M29.6783 755.527L31.7647 756.174L31.4586 755.179L29.4744 754.88L26.1998 755.854L24.1162 757.238L25.006 757.037L29.6783 755.527Z" fill="#C9D6DF"/>
<path id="Vector_67" d="M40.3774 756.188L41.0411 755.158L38.8107 753.224L37.0471 753.621L37.3636 754.998L35.2988 757.064L36.3591 757.252L40.3774 756.188Z" fill="#C9D6DF"/>
<path id="Vector_68" d="M61.5881 702.571L63.9166 702.668L65.2286 699.746L64.869 699.266L61.33 698.285L58.4658 697.694L58.4672 699.336L61.5881 702.571Z" fill="#C9D6DF"/>
<path id="Vector_69" d="M109.69 741.328L110.703 746.503L112.951 747.088L117.805 744.229L121.569 742.016L120.138 739.922L120.206 739.602L120.374 738.802L119.362 739.4L114.512 738.134L110.386 740.632L109.69 741.328Z" fill="#C9D6DF"/>
<path id="Vector_70" d="M101.525 754.462L101.288 753.878L100.998 754.101L101.397 754.608L101.525 754.462Z" fill="#C9D6DF"/>
<path id="Vector_71" d="M77.9386 754.553L77.197 754.428L76.8262 755.165H77.693L77.9386 754.553Z" fill="#C9D6DF"/>
<path id="Vector_72" d="M153.551 718.446L152.847 718.85L152.956 719.476L153.844 718.961L153.551 718.446Z" fill="#C9D6DF"/>
<path id="Vector_73" d="M75.3062 752.995L74.9041 752.626L73.832 753.078L74.3754 753.704L75.3062 752.995Z" fill="#C9D6DF"/>
<path id="Vector_74" d="M146.484 724.158L149.795 720.401L149.702 720.158L145.907 723.497L146.049 724.026L146.484 724.158Z" fill="#C9D6DF"/>
<path id="Vector_75" d="M84.5123 748.988L86.8762 749.843L87.1684 749.189L87.27 749.085L88.0763 748.278L85.8626 746.699L92.7089 743.763L98.2014 742.587L100.343 741.453H100.338L108.332 737.133L114.926 732.868L117.451 729.995L116.923 728.499L114.278 727.324L114.874 724.743L118.34 721.855L122.515 720.464L123.583 718.328L125.455 715.65H125.457L128.055 711.956L133.548 708.86L138.024 709.319L140.085 713.438H135.578L135.348 713.152L134.694 712.331L131.12 714.224L131.061 714.578V716.568L128.612 720.652L127.92 722.294L130.009 722.871V725.417L126.361 726.05L126.566 726.913L130.619 727.024L133.861 725.104L135.683 722.892L139.343 720.297L142.181 722.099L143.484 720.93L145.416 722.085L144.592 714.669L148.918 712.971L153.245 712.505L156.201 718.69L158.186 719.045L164.556 722.788L165.01 722.426H171.094L176.989 724.972L180.506 726.064L183.145 725.028L186.169 722.217V725.842L185.038 728.666L188.678 730.941L193.777 733.627L196.44 736.688L199.627 738.935L202.269 738.274L204.012 739.575L201.161 741.251V742.782L202.684 743.832L204.546 747.13L205.14 750.574L207.198 751.061L210.991 757.419L211.025 757.454L210.57 750.755L211.867 751.617L212.932 752.327L213.638 756.431L214.443 759.346L214.457 759.339L215.296 755.569H217.469V761.148L219.215 762.894L218.7 763.444L220.412 767.298C220.47 767.396 220.675 767.736 220.953 768.196C221.278 768.738 221.693 769.413 222.037 769.949C222.263 770.303 222.47 770.603 222.562 770.714C222.609 770.777 222.663 770.832 222.718 770.895L222.054 769.963L220.91 766.241L224.935 768.613L226.603 770.283L226.831 770.178L226.723 767.048L225.104 763.813L226.722 762.192L229.048 763.687L232.148 765.239L233.588 768.383L234.487 768.794L235.864 767.027L236.825 763.785L236.331 760.828L235.375 756.758L230.363 754.685L224.92 752.73L223.391 748.702L221.091 745.885L218.158 741.891L214.709 735.881L210.733 734.03L209.53 731.491L207.473 730.252L206.808 727.198L204.346 725.452L202.655 726.691L202.45 726.711L201.572 726.816L200.469 728.117L200.036 731.595L199.492 731.699L198.952 731.811L194.588 734.232L193.902 730.809L186.619 723.789L186.507 721.195H184.887L183.427 722.391L179.777 722.238L177.53 720.854L177.924 632.96L174.763 630.622L170.145 628.793L168.422 629.488L165.866 630.24L160.62 627.679L159.116 628.772L152.257 624.25L144.873 623.589L142.454 621.815L142.089 618.281L139.128 617.988L136.956 620.159L135.619 617.752L135.774 617.404L136.101 616.667L134.519 614.872L131.11 612.562H130.502L127.616 615.707L122.289 615.853L122.074 615.693L121.266 615.087L120.548 615.171L116.772 617.383L113.457 618.135L111.895 617.174L108.699 619.269L107.544 622.35L103.391 626.365L98.6098 626.504L96.7572 625.843H93.8311L91.6056 627.297L93.7365 630.998L96.8281 635.965L97.6817 640.244L97.6254 640.425L97.1829 641.858L97.4883 642.546L101.849 644.967L100.903 645.677L100.287 646.143L101.153 648.849L103.827 654.046L101.041 655.639L95.5112 653.657L92.0049 651.583L92.7792 649.455L93.9007 647.722L93.1493 647.11L90.8487 646.762L87.7153 647.284L87.8565 649.121H86.0518L85.8278 648.898L85 648.07H83.1104L76.5424 648.564L76.4749 648.669L78.1662 651.938L80.6602 653.991L79.8894 656.919L79.4198 660.454L82.6235 663.786L87.6081 663.911L91.3739 665.79L93.0818 666.249L96.1603 665.511L99.3424 664.558L101.098 667.487L100.787 667.897C100.762 667.925 100.341 668.489 99.6158 669.073L99.5893 669.115L99.4836 669.317C99.4036 669.505 99.3159 669.762 99.2408 670.04C99.0877 670.604 98.9674 671.258 98.8999 671.682C98.854 671.96 98.8324 672.134 98.831 672.134L98.8296 672.155L97.9739 677.004L95.1126 678.59H92.9837L92.7959 678.479L91.8066 677.86L90.5662 677.38L87.4648 679.738L84.0121 680.281L83.5654 677.296L81.6342 676.434L79.2981 677.491L77.355 681.255L74.566 683.064L70.0913 686.173L69.15 690.772L69.9549 692.741L70.9379 692.351L72.8427 693.617L72.1804 694.278L71.2037 695.259L71.061 697.715L68.8557 698.487V698.786L71.0562 702.411L71.6955 706.237L72.7258 707.176H78.2858L79.3474 705.228L81.3503 707.232V711.886L82.293 714.53L81.3162 714.627L80.2073 714.738L79.3843 715.337L79.9283 716.965L79.3168 720.026L78.7825 720.561L79.6556 720.687L81.8262 719.539L86.8609 719.386L87.3069 721.605L87.6443 721.758L89.5567 719.838L91.1958 726.691L91.2911 726.697L91.3996 724.179L92.9886 722.593L95.155 723.24L95.7408 725.466L98.4087 724.972L101.482 722.607L100.762 727.407L98.9521 728.938L96.6528 733.536L94.5365 737.634L90.3909 739.053L89.019 743.032H87.4126L87.2039 742.865L86.8595 742.587L85.8904 742.879L82.3501 743.533L79.456 744.5L77.099 747.38L76.9049 747.457L75.4537 748L73.5969 746.573L71.1209 746.455L69.3747 747.206L66.4973 747.833L64.3059 750.024L59.5104 751.861L52.9473 751.2L50.4414 752.243V753.433L51.2929 754.024L52.0352 753.287L54.8646 752.501L57.6599 753.753L59.5647 754.094L61.0201 753.419L63.4043 752.014H66.1474L69.3051 749.961L72.9596 751.311L75.7243 750.351H75.718L80.6192 748.598L80.5239 749.203L80.544 749.148L84.5123 748.988Z" fill="#C9D6DF"/>
<path id="Vector_76" d="M117.841 735.741L119.881 736.555L123.237 734.99L123.379 734.601L120.856 733.8L121.017 733.397L120.22 733.94L117.841 735.741Z" fill="#C9D6DF"/>
<path id="Vector_77" d="M217.321 764.981C217.45 765.155 217.611 765.329 217.76 765.468C217.841 765.322 217.911 765.141 217.931 765.079L217.938 765.058L218.291 763.882L217.295 764.947C217.304 764.96 217.312 764.974 217.321 764.981Z" fill="#C9D6DF"/>
</g>
<path id="Vector_78" d="M92.6823 12.3925C92.3908 12.8676 92.0325 13.4631 91.7744 13.9355L93.0044 13.5564L93.6618 11.6794L93.371 11.2919L93.1985 11.5646C93.1964 11.566 92.9745 11.9173 92.6823 12.3925Z" fill="#C9D6DF"/>
<path id="Vector_79" d="M89.2793 11.9834L89.353 11.9208L89.8699 9.51094L92.7758 10.4181L94.7753 8.14949L94.1916 7.05444H92.092L89.5103 9.81008L88.6239 7.50666L87.5171 7.62284L87.8879 9.93951L89.2793 11.9834Z" fill="#C9D6DF"/>
<path id="Vector_80" d="M87.2607 93.3537L89.8543 90.8958L95.6494 92.8284L96.7249 92.6928L103.594 95.4394L105.592 97.0631L111.03 97.3038L112.837 96.2519L116.113 98.531L121.392 99.2684L128.945 96.4189L129.185 97.1995L129.544 98.3634L148.4 98.2347L167.308 102.862L183.483 107.119L183.979 95.4853L188.596 74.5088L188.595 74.5136L194.255 47.9249L198.987 30.8373L199.764 26.7299L180.879 22.2866L152.059 15.0492L126.947 7.81822L116.159 5.31927L103.895 1.75872L98.6179 0L97.4832 0.434808L97.3302 0.844606L100.21 6.48038L101.809 10.114L99.4959 14.8788V17.4375L100.359 19.4516L99.2594 21.7864L99.8535 25.5876L101.111 27.4048L100.715 29.9788L97.6662 30.415L96.6957 27.34L95.3412 24.3875L92.9063 22.3818L93.4426 18.8032L96.135 18.1917L95.8741 16.7099L95.7649 16.3119L94.0709 17.4146L92.788 18.5896V22.1098L89.0542 22.4479L84.6401 21.2068L80.9814 19.3792L77.178 18.591L71.4017 15.9063L67.2164 13.3413L63.7053 9.96373L60.8133 6.44145L59.1798 6.03305L56.5368 16.9659L58.7255 21.0858V31.2213L57.9526 34.8278L59.7175 43.526L64.0211 47.9952L57.6367 48.9079L57.4385 52.4817L60.91 54.0115L58.5077 60.2568L55.2359 60.6346L54.9409 63.3978L57.2464 66.3281L59.3704 65.2059L61.463 66.9507L61.5883 66.9055L65.2991 67.7125L66.0811 70.9684L71.0636 71.735L74.2506 77.2387L74.2408 77.6157L74.2506 77.6331L73.9758 88.1235L73.7935 88.3308L73.6502 88.4957L80.0506 92.9878L87.2607 93.3537Z" fill="#C9D6DF"/>
<path id="Vector_81" d="M980.765 698.626L980.361 699.885L980.368 699.878L980.194 700.421L980.716 699.433L980.765 698.626Z" fill="#C9D6DF"/>
<path id="Vector_82" d="M952.673 725.751L956.269 724.443L956.193 724.256L954.426 723.929L954.349 723.901L953.173 723.407L950.752 725.167L949.771 726.767L952.673 725.751Z" fill="#C9D6DF"/>
<path id="Vector_83" d="M976.472 710.015L977.223 707.983L975.115 711.448L976.472 710.015Z" fill="#C9D6DF"/>
<path id="Vector_84" d="M961.994 722.35L962.279 722.593L964.721 720.617L964.38 720.819L961.994 722.35Z" fill="#C9D6DF"/>
<g id="ca" class="map__state-w">
<path id="Vector_85" class="map__state" d="M159.825 481.152L160.278 479.121L156.486 478.467L156.31 478.119L155.659 476.818L155.679 476.735L155.392 476.164L155.963 473.736L156.103 465.792L159.072 464.748L162.305 461.513L162.946 455.37L164.883 450.389L167.58 447.69L171.945 445.443L173.598 444.009L173.671 442.388L172.92 441.936L171.669 440.371L171.577 439.933L171.4 439.71L169.863 432.412L166.58 426.353L166.602 426.228L166.312 425.692L166.924 422.422L163.994 418.637L145.828 389.683L121.499 352.595L121.503 352.602L92.962 309.463L77.2581 285.507L77.375 285.039L77.2518 284.851L79.4391 276.103L88.2521 242.953L88.2508 242.961L94.8661 217.096L98.0078 204.488L81.4267 199.566L64.5791 195.222L48.9218 189.958L39.4722 187.333L39.4785 187.336L25.246 183.513L17.5725 180.806L16.1136 185.283L15.8493 194.923L9.14349 210.213L5.37561 213.462L4.95055 215.023L2.68816 216.089L0.96144 221.145L0 224.871L3.28575 230.053L5.29143 235.539L6.78579 240.29L6.37532 248.895L4.12894 252.86L3.35114 260.25L2.21925 264.779L4.3286 269.495L7.75071 275.285L10.4152 281.418L12.0529 286.734L11.6271 291.136L11.5381 291.285L11.2521 291.761V293.887L18.4178 301.98L17.6762 305.537L16.8768 308.468L16.1213 310.859L16.3759 321.06L18.8895 325.582L21.1762 328.594L24.7472 329.283L26.1511 333.492L24.56 338.556L21.5373 340.977H20.4436L19.5511 345.221L20.1514 348.581L24.2052 354.202L26.2123 361.166L28.042 367.184L29.5871 371.045L33.9011 378.496L35.808 381.898L36.4279 385.369L38.4725 386.594V390.344L37.3851 392.925L35.161 401.948L34.6052 404.063L37.1757 407.082L42.2369 407.715L48.0265 410.004L52.7614 412.564H56.5828L60.5643 416.829L63.9029 423.111L65.2456 425.796L69.7891 428.252L76.0295 429.33L78.1493 432.363L79.0829 437.338L78.5159 437.581L77.3242 438.089L77.3645 438.207L80.971 439.14L84.7138 439.425L88.5645 445.749L93.4824 451.196L94.5593 454.16L97.9 459.642L98.3132 464.059V475.956L98.8016 477.611L110.939 479.379L135.644 482.933L153.395 484.499L158.241 483.532L159.825 481.152Z" fill="#C9D6DF"/>
<g id="Pointer">
<g id="Pointer_2" filter="url(#filter0_d_26_1039)">
<circle class="map__state__fill" cx="88.7725" cy="382" r="10" fill="#52616B"  />
<circle cx="88.7725" cy="382" r="9" stroke="white" stroke-width="2"/>
</g>
</g>
</g>
<g id="az" class="map__state-w">
<path id="Vector_86" class="map__state" d="M284.725 494.635L284.724 494.642L293.535 426.652L298.627 388.598L267.207 383.449L233.006 377.529L192.143 369.842L188.618 391.867L187.979 392.507L185.685 396.236L185.459 396.222L185.292 396.494L181.21 396.327L179.616 392.744L176.323 392.361L175.174 390.956H174.59L173.959 391.373L173.951 391.38L173.564 391.638L171.827 392.549L171.703 401.023L171.438 403.27L170.773 419.5L168.899 422.311L168.212 425.977L171.264 431.612L171.321 431.877L171.532 432.266L173.003 439.258L173.679 440.107L175.27 441.06L175.249 441.54L175.537 441.714L175.37 445.394L173.08 447.384L168.765 449.603L166.465 451.906L164.72 456.393L164.046 462.877L160.178 466.738L157.888 467.538L157.763 474.585L157.327 476.443L162.258 477.292L162.127 477.876L162.526 477.945L161.531 482.426L159.41 485.605L154.283 486.141L151.375 488.583L151.098 489.884L151.511 490.628L175.013 504.208L190.275 513.815L208.68 524.856L208.686 524.863L229.614 537.678L244.842 540.801L277.48 545.156L279.991 528.954L284.725 494.635Z" fill="#C9D6DF"/>
<g id="Pointer_3">
<g id="Pointer_4" filter="url(#filter1_d_26_1039)">
<circle class="map__state__fill" cx="242.761" cy="424.108" r="10" fill="#52616B"/>
<circle cx="242.761" cy="424.108" r="9" stroke="white" stroke-width="2"/>
</g>
</g>
</g>
<g id="ut" class="map__state-w">
<path id="Vector_87" class="map__state" d="M438.502 401.391L438.674 401.398L451.15 401.892L456.308 319.508H456.29L458.388 291.196L417.331 287.711L386.678 285.08L339.975 279.818L315.716 276.863L311.889 304.281L307.813 332.817L303.079 368.582L301.236 382.684L300.444 386.74L300.683 386.782L300.682 386.789L342.79 391.923L389.065 397.572L413.07 399.325L430.09 400.466L438.502 401.391Z" fill="#C9D6DF"/>
<g id="Pointer_5">
<g id="Pointer_6" filter="url(#filter2_d_26_1039)">
<circle class="map__state__fill" cx="349.832" cy="362" r="10" fill="#52616B"/>
<circle cx="349.832" cy="362" r="9" stroke="white" stroke-width="2"/>
</g>
</g>
</g>
<g id="tx" class="map__state-w">
<path id="Vector_88" class="map__state" d="M636.536 603.838L637.454 594.551L638.289 591.691L636.244 588.964L640.091 582.23L640.96 572.101L640.884 572.024L640.87 571.871L640.098 571.099L639.833 566.966L634.337 559.905L633.148 553.407L629.989 548.148L629.036 542.972L628.111 530.937V519.256L627.346 505.516L625.391 504.695L621.648 506.434L621.168 506.024L620.862 506.17L618.67 504.278L615.435 502.288L615.192 502.17L611.073 500.98L606.795 498.489L606.711 498.385L606.663 498.357L604.207 495.289L602.753 494.948L600.847 497.488H594.808L594.752 497.348H594.669L593.932 495.38H593.361L589.785 498.128L586.891 496.827H582.133L581.402 499.874L578.438 501.356L574.438 500.069L569.881 498.378L564.461 497.411L564.394 497.286L564.328 497.272L562.998 494.851H562.57L560.428 499.895L558.169 501.112L551.463 498.489L551.427 498.392L551.331 498.357L550.259 495.38H547.575L545.672 494.6L542.811 497.46L538.936 496.228V496.138L538.803 496.096V493.543H538.129L538.032 493.404H537.997L534.874 489.111L531.25 488.346L528.177 491.136L524.659 488.499L519.615 487.595L516.503 486.169L510.712 485.869L510.725 485.744L510.58 485.737L511.128 480.527L509.436 479.678V480.916H505.645L505.549 480.784H505.513L505.283 480.464L504.555 479.455L504.002 481.041L503.619 481.146L502.395 481.501L499.419 479.859L493.61 474.878L493.607 474.857L493.476 474.745L493.171 472.29L493.699 449.471L495.364 420.12L457.077 418.7L455.142 418.596L429.539 417.295L427.551 439.766L427.502 440.35L422.637 511.241L419.671 542.374L382.487 540.224L346.046 536.669L336.913 535.841L337.701 540.481L339.693 541.003L343.242 544.983L345.031 550.479L350.934 553.366L352.438 557.463L361.306 567.509L362.776 569.471L369.152 572.128L370.637 574.96L372.716 576.344L373.42 580.136L376.997 589.02V599.379L380.158 605.953L389.299 615.742L395.884 618.378L398.435 621.231V621.871L402.849 624.5L405.362 625.293L407.61 626.747L410.346 627.728L412.985 624.98L418.393 617.251L419.576 612.52L422.678 608.012L427.371 606.078L433.428 603.685L437.41 606.704L446.557 607.477L455.333 608.958L459.064 611.943V613.355L462.142 617.042L469.802 624.034L469.841 624.305L470.071 625.92L472.294 628.403L473.369 633.92L480.122 649.677L479.889 651.897L484.921 655.041L489.457 663.716L493.629 669.025L497.732 670.75L500.033 674.124L498.454 679.78L498.935 680.504L500.799 681.436L500.332 686.577L499.662 687.245L500.254 689.415L504.36 691.934L505.98 700.442L508.434 705.103L517.721 709.298L524.382 710.766L529.636 714.704L533.311 715.413L534.894 714.753L542.253 716.283L549.059 721.069L552.3 718.948L553.131 717.654L551.07 714.384L549.867 706.369L547.648 697.492L546.543 694.174L547.637 688.156L549.093 683.126L550.668 677.352L552.389 670.715L549.413 668.148L551.037 664.718L556.244 664.322L561.081 657.26L562.902 656.92L563.792 655.876L565.462 656.433L572.657 651.938L574.911 650.081L582.898 645.691L589.973 642.547L596.603 638.386L599.963 635.805L607.08 628.946L608.708 627.86L611.324 626.038L614.448 623.659L615.672 621.077L628.34 615.15L634.964 613.334L634.81 607.964L636.536 603.838Z" fill="#C9D6DF"/>
<g id="Pointer_7">
<g id="Pointer_8" filter="url(#filter3_d_26_1039)">
<circle class="map__state__fill" cx="522.5" cy="562" r="10" fill="#52616B"/>
<circle cx="522.5" cy="562" r="9" stroke="white" stroke-width="2"/>
</g>
</g>
</g>
<g id="ok" class="map__state-w">
<path id="Vector_89" class="map__state" d="M617.063 454.542L615.352 440.601V430.116L613.195 420.474L613.466 420.467L612.986 412.446L612.785 407.868L597.458 408.842L539.287 408.313L482.844 405.684L468.242 404.633L451.039 403.666L451.042 403.625L438.656 402.936L438.263 402.922L431.185 402.351V415.792L455.228 417.065L457.285 417.17L497.119 418.645L495.365 449.666L494.841 472.345L495.057 474.077L500.165 478.46L502.448 479.712L502.682 479.643L503.957 476.004L504.078 476.171L504.089 476.137L506.335 479.246H507.768V477.062L512.773 479.566L512.767 479.629L512.907 479.699L512.423 484.29L516.742 484.513L519.945 485.981L525.156 486.92L527.952 489.014L530.667 486.544L535.679 487.609L535.77 487.734L535.811 487.741L538.815 491.873H540.339V492.005H540.472V495.011L542.253 495.581L545.177 492.652L547.747 493.71H551.291L551.338 493.842H551.424L552.637 497.216L557.933 499.289L559.093 498.663L561.422 493.181H563.831L563.905 493.32H563.964L565.386 495.901L570.159 496.757L574.807 498.489L578.174 499.568L579.941 498.684L580.79 495.157H587.086L589.444 496.221L592.707 493.71H594.947L594.996 493.842H595.079L595.817 495.811H599.949L601.994 493.091L604.972 493.793L605.076 493.919L605.111 493.926L607.727 497.202L611.553 499.421L615.637 500.611L616.166 500.931L617.314 501.46L617.063 454.542Z" fill="#C9D6DF"/>
<g id="Pointer_9">
<g id="Pointer_10" filter="url(#filter4_d_26_1039)">
<circle class="map__state__fill" cx="562.525" cy="440.598" r="10" fill="#52616B"/>
<circle cx="562.525" cy="440.598" r="9" stroke="white" stroke-width="2"/>
</g>
</g>
</g>
<g id="la" class="map__state-w">
<path id="Vector_90" class="map__state" d="M733.676 587.357L729.195 583.148L730.656 573.339L730.197 572.754L728.249 572.97L717.828 573.895L686.807 574.835L686.104 572.003L687.05 561.456L691.468 553.421L697.854 542.053L696.345 538.693H696.665L696.602 538.554H698.39L699.044 535.674L696.192 533.343L696.477 530.769L693.875 524.912L693.534 518.908L680.838 518.79L656.774 519.972H630.428V531.806L631.346 543.702L632.23 548.523L635.388 553.783L636.564 560.183L642.115 567.321L642.366 571.196L642.561 571.391L642.547 571.516L643.347 572.309L642.38 583.621L638.86 589.771L640.766 592.303L639.757 595.761L638.832 605.146L637.148 609.153L637.336 611.358L641.489 609.981L651.876 609.571L664.976 614.204L672.858 615.602L677.658 613.738L678.451 614.016L675.251 612.047L675.328 611.546C675.335 611.525 675.376 611.254 675.474 610.906C675.578 610.544 675.724 610.106 676.03 609.703C676.211 609.459 676.497 609.202 676.9 609.097V609.09C677.672 608.833 680.699 607.783 680.705 607.783L681.109 607.636L683.286 609.424L685.304 608.36L689.993 609.264L692.087 612.854L692.414 615.282L697.736 615.651L700.561 618.482L699.176 621.265L699.002 621.376L698.181 621.926L699.427 623.255L709.514 627.666L713.368 626.191L714.572 622.977L718.085 622.135L720.652 620.027L722.92 621.724L724.061 625.718L724.896 625.377L727.484 621.502L725.564 621.209L726.976 618.378L726.649 616.089L729.71 615.317L731.623 613.063L733.161 615.115L733.14 615.4C733.14 615.4 733.14 615.498 733.126 615.672C733.119 615.846 733.112 616.089 733.112 616.367C733.112 616.813 733.133 617.341 733.195 617.794C733.23 618.121 733.314 618.406 733.362 618.538C733.689 618.552 734.065 618.594 734.531 618.656C735.088 618.733 735.721 618.83 736.319 618.928C737.509 619.129 738.566 619.324 738.566 619.324L738.671 619.345L744.083 621.982L745.161 623.651H748.696L748.911 623.825L749.732 624.5L751.993 621.411V620.59H750.908L746.525 617L739.185 615.95L734.462 612.597L736.361 607.929L737.919 608.144L737.001 607.657V605.765H741.398L743.186 602.614L741.76 600.353L741.44 597.417L740.653 597.528L738.476 599.935L737.558 603.755L732.66 602.746L731.06 599.713L733.676 596.784L736.159 594.564L735.081 592.206L733.676 587.357Z" fill="#C9D6DF"/>
<g id="Pointer_11">
<g id="Pointer_12" filter="url(#filter5_d_26_1039)">
<circle class="map__state__fill" cx="652.558" cy="538.5" r="10" fill="#52616B"/>
<circle cx="652.558" cy="538.5" r="9" stroke="white" stroke-width="2"/>
</g>
</g>
</g>
<g id="ga" class="map__state-w">
<path id="Vector_91" class="map__state" d="M928.4 514.97L926.967 510.789L924.546 508.591L921.04 507.749L920.914 507.394L920.782 507.359L918.549 500.813L915.411 493.807L910.402 491.428L907.585 488.749L907.453 488.485L907.327 488.36L905.873 485.34L903.543 483.121L900.593 481.382L897.678 477.66L894.026 474.891L888.14 472.568L888.022 472.234L887.883 472.178L887.201 470.272L884.397 466.856L884.342 466.71L884.126 466.446L884.077 466.313L883.583 464.831L879.667 458.709L875.52 458.96L870.101 455.349L868.55 453.666L868.306 453.401L867.833 450.716L869.092 447.717L871.729 446.639L871.548 445.443L869.83 445.783L862.434 447.105L857.279 447.724L854.107 448.156L851.735 448.302L846.357 448.719L846.35 448.837L839.692 449.999L829.145 451.446L819.385 452.532L819.294 454.347L819.552 456.887L820.317 461.116L824.519 471.225L827.552 483.9L829.389 491.769L831.497 497.96L833.341 506.907L835.915 514.768L839.247 519.158L839.866 523.263L842.391 524.327L842.718 527.583L840.444 533.858L839.803 537.977L839.56 540.286L841.508 545.88L841.918 552.976L840.944 555.891L841.404 556.489L843.393 557.63L844.493 562.43L847.4 566.855L848.973 568.42L858.629 568.678L872.271 567.891L899.202 566.18L906.068 565.255H912.622L912.893 569.137L914.5 569.645L914.799 565.331L912.754 559.327L914.695 556.51L914.855 556.538L914.959 556.385L922.758 557.498L927.76 557.734L926.501 550.875L929.437 537.796L931.225 532.557L930.55 529.19L935.642 520.313L935.287 519.367L933.472 520.327L929.534 518.282L929.444 517.982L929.277 517.892L928.4 514.97Z" fill="#C9D6DF"/>
<g id="Pointer_13">
<g id="Pointer_14" filter="url(#filter6_d_26_1039)">
<circle class="map__state__fill" cx="855.992" cy="501.46" r="10" fill="#52616B"/>
<circle cx="855.992" cy="501.46" r="9" stroke="white" stroke-width="2"/>
</g>
</g>
</g>
<g id="fl" class="map__state-w">
<path id="Vector_92" class="map__state" d="M915.585 558.193L914.73 559.432L916.622 565.004L916.156 571.787L915.898 571.711L915.885 571.912L911.168 570.41L910.924 566.917H905.901L899.084 567.836L872.098 569.547H872.091L858.386 570.34L848.048 570.069L845.933 567.954L843.004 563.501H835.915L827.413 564.288L795.335 567.968L783.063 569.596L782.764 572.573L784.58 574.389L788.121 577.081V577.109L788.225 577.193L788.962 586.703L791.766 586.188L799.293 583.551L806.862 582.883L812.512 582.076L822.335 584.365L832.645 589.451L834.593 591.274L838.336 592.741L840.569 595.573L840.875 598.328L844.145 596.957H848.966L853.175 594.599L858.086 589.833L861.711 590.077L861.954 589.548L861.001 588.352L861.356 584.984L867.109 583.802H870.393L874.192 585.701L879.66 587.614L882.686 592.345L886.206 593.562L887.674 597.959L891.925 600.018L893.866 603.253L896.071 603.949L903 605.751L904.684 609.953L908.594 614.809V627.422L906.764 633.432L907.14 636.772L908.684 642.845L910.542 647.096L910.597 647.061L912.128 642.247L909.248 641.21L908.343 639.402L911.307 638.212L917.728 639.562L918.09 642.463L913.853 649.844L911.613 652.529L915.634 656.787L918.987 660.808L922.681 667.668L926.39 672.697L928.894 678.84L930.237 679.077L932.352 676.113L935.343 678.047L938.808 683.446L939.594 688.044L942.648 692.573L943.323 691.481L948.853 691.926L953.619 695.015L958.127 701.833L959.219 706.355L959.581 709.771L960.701 710.682L961.891 711.183L964.451 710.174L966.378 707.969L971.415 707.698L974.935 706L978.003 702.223L977.433 700.059L977.008 696.685L977.794 694.194L977.349 691.349L980.487 689.575L980.828 685.804L980.055 683.62L979.394 668.294L977.843 658.735L972.257 648.341L967.776 640.828L964.534 634.08L960.826 630.372L956.944 620.395L958.231 618.315L959.372 616.959L957.71 613.849L952.645 609.167L946.523 601.98L941.75 593.896L935.009 581.868L930.237 569.283L927.795 559.494L922.341 559.153L915.585 558.193Z" fill="#C9D6DF"/>
<g id="Pointer_15">
<g id="Pointer_16" filter="url(#filter7_d_26_1039)">
<circle class="map__state__fill" cx="920.615" cy="605.061" r="10" fill="#52616B"/>
<circle cx="920.615" cy="605.061" r="9" stroke="white" stroke-width="2"/>
</g>
</g>
</g>
</g>
<defs>
<filter id="filter0_d_26_1039" x="71.3725" y="363.6" width="42.8" height="42.8" filterUnits="userSpaceOnUse" color-interpolation-filters="sRGB">
<feFlood flood-opacity="0" result="BackgroundImageFix"/>
<feColorMatrix in="SourceAlpha" type="matrix" values="0 0 0 0 0 0 0 0 0 0 0 0 0 0 0 0 0 0 127 0" result="hardAlpha"/>
<feOffset dx="4" dy="3"/>
<feGaussianBlur stdDeviation="5.7"/>
<feComposite in2="hardAlpha" operator="out"/>
<feColorMatrix type="matrix" values="0 0 0 0 0.282353 0 0 0 0 0.298039 0 0 0 0 0.34902 0 0 0 0.3 0"/>
<feBlend mode="normal" in2="BackgroundImageFix" result="effect1_dropShadow_26_1039"/>
<feBlend mode="normal" in="SourceGraphic" in2="effect1_dropShadow_26_1039" result="shape"/>
</filter>
<filter id="filter1_d_26_1039" x="225.361" y="405.708" width="42.8" height="42.8" filterUnits="userSpaceOnUse" color-interpolation-filters="sRGB">
<feFlood flood-opacity="0" result="BackgroundImageFix"/>
<feColorMatrix in="SourceAlpha" type="matrix" values="0 0 0 0 0 0 0 0 0 0 0 0 0 0 0 0 0 0 127 0" result="hardAlpha"/>
<feOffset dx="4" dy="3"/>
<feGaussianBlur stdDeviation="5.7"/>
<feComposite in2="hardAlpha" operator="out"/>
<feColorMatrix type="matrix" values="0 0 0 0 0.282353 0 0 0 0 0.298039 0 0 0 0 0.34902 0 0 0 0.3 0"/>
<feBlend mode="normal" in2="BackgroundImageFix" result="effect1_dropShadow_26_1039"/>
<feBlend mode="normal" in="SourceGraphic" in2="effect1_dropShadow_26_1039" result="shape"/>
</filter>
<filter id="filter2_d_26_1039" x="332.432" y="343.6" width="42.8" height="42.8" filterUnits="userSpaceOnUse" color-interpolation-filters="sRGB">
<feFlood flood-opacity="0" result="BackgroundImageFix"/>
<feColorMatrix in="SourceAlpha" type="matrix" values="0 0 0 0 0 0 0 0 0 0 0 0 0 0 0 0 0 0 127 0" result="hardAlpha"/>
<feOffset dx="4" dy="3"/>
<feGaussianBlur stdDeviation="5.7"/>
<feComposite in2="hardAlpha" operator="out"/>
<feColorMatrix type="matrix" values="0 0 0 0 0.282353 0 0 0 0 0.298039 0 0 0 0 0.34902 0 0 0 0.3 0"/>
<feBlend mode="normal" in2="BackgroundImageFix" result="effect1_dropShadow_26_1039"/>
<feBlend mode="normal" in="SourceGraphic" in2="effect1_dropShadow_26_1039" result="shape"/>
</filter>
<filter id="filter3_d_26_1039" x="505.1" y="543.6" width="42.8" height="42.8" filterUnits="userSpaceOnUse" color-interpolation-filters="sRGB">
<feFlood flood-opacity="0" result="BackgroundImageFix"/>
<feColorMatrix in="SourceAlpha" type="matrix" values="0 0 0 0 0 0 0 0 0 0 0 0 0 0 0 0 0 0 127 0" result="hardAlpha"/>
<feOffset dx="4" dy="3"/>
<feGaussianBlur stdDeviation="5.7"/>
<feComposite in2="hardAlpha" operator="out"/>
<feColorMatrix type="matrix" values="0 0 0 0 0.282353 0 0 0 0 0.298039 0 0 0 0 0.34902 0 0 0 0.3 0"/>
<feBlend mode="normal" in2="BackgroundImageFix" result="effect1_dropShadow_26_1039"/>
<feBlend mode="normal" in="SourceGraphic" in2="effect1_dropShadow_26_1039" result="shape"/>
</filter>
<filter id="filter4_d_26_1039" x="545.125" y="422.198" width="42.8" height="42.8" filterUnits="userSpaceOnUse" color-interpolation-filters="sRGB">
<feFlood flood-opacity="0" result="BackgroundImageFix"/>
<feColorMatrix in="SourceAlpha" type="matrix" values="0 0 0 0 0 0 0 0 0 0 0 0 0 0 0 0 0 0 127 0" result="hardAlpha"/>
<feOffset dx="4" dy="3"/>
<feGaussianBlur stdDeviation="5.7"/>
<feComposite in2="hardAlpha" operator="out"/>
<feColorMatrix type="matrix" values="0 0 0 0 0.282353 0 0 0 0 0.298039 0 0 0 0 0.34902 0 0 0 0.3 0"/>
<feBlend mode="normal" in2="BackgroundImageFix" result="effect1_dropShadow_26_1039"/>
<feBlend mode="normal" in="SourceGraphic" in2="effect1_dropShadow_26_1039" result="shape"/>
</filter>
<filter id="filter5_d_26_1039" x="635.158" y="520.1" width="42.8" height="42.8" filterUnits="userSpaceOnUse" color-interpolation-filters="sRGB">
<feFlood flood-opacity="0" result="BackgroundImageFix"/>
<feColorMatrix in="SourceAlpha" type="matrix" values="0 0 0 0 0 0 0 0 0 0 0 0 0 0 0 0 0 0 127 0" result="hardAlpha"/>
<feOffset dx="4" dy="3"/>
<feGaussianBlur stdDeviation="5.7"/>
<feComposite in2="hardAlpha" operator="out"/>
<feColorMatrix type="matrix" values="0 0 0 0 0.282353 0 0 0 0 0.298039 0 0 0 0 0.34902 0 0 0 0.3 0"/>
<feBlend mode="normal" in2="BackgroundImageFix" result="effect1_dropShadow_26_1039"/>
<feBlend mode="normal" in="SourceGraphic" in2="effect1_dropShadow_26_1039" result="shape"/>
</filter>
<filter id="filter6_d_26_1039" x="838.592" y="483.06" width="42.8" height="42.8" filterUnits="userSpaceOnUse" color-interpolation-filters="sRGB">
<feFlood flood-opacity="0" result="BackgroundImageFix"/>
<feColorMatrix in="SourceAlpha" type="matrix" values="0 0 0 0 0 0 0 0 0 0 0 0 0 0 0 0 0 0 127 0" result="hardAlpha"/>
<feOffset dx="4" dy="3"/>
<feGaussianBlur stdDeviation="5.7"/>
<feComposite in2="hardAlpha" operator="out"/>
<feColorMatrix type="matrix" values="0 0 0 0 0.282353 0 0 0 0 0.298039 0 0 0 0 0.34902 0 0 0 0.3 0"/>
<feBlend mode="normal" in2="BackgroundImageFix" result="effect1_dropShadow_26_1039"/>
<feBlend mode="normal" in="SourceGraphic" in2="effect1_dropShadow_26_1039" result="shape"/>
</filter>
<filter id="filter7_d_26_1039" x="903.215" y="586.661" width="42.8" height="42.8" filterUnits="userSpaceOnUse" color-interpolation-filters="sRGB">
<feFlood flood-opacity="0" result="BackgroundImageFix"/>
<feColorMatrix in="SourceAlpha" type="matrix" values="0 0 0 0 0 0 0 0 0 0 0 0 0 0 0 0 0 0 127 0" result="hardAlpha"/>
<feOffset dx="4" dy="3"/>
<feGaussianBlur stdDeviation="5.7"/>
<feComposite in2="hardAlpha" operator="out"/>
<feColorMatrix type="matrix" values="0 0 0 0 0.282353 0 0 0 0 0.298039 0 0 0 0 0.34902 0 0 0 0.3 0"/>
<feBlend mode="normal" in2="BackgroundImageFix" result="effect1_dropShadow_26_1039"/>
<feBlend mode="normal" in="SourceGraphic" in2="effect1_dropShadow_26_1039" result="shape"/>
</filter>
</defs>
</svg>
